<svg height="512" width="512" xmlns="http://www.w3.org/2000/svg">
    <path d="M256 0l-63.734 128L256 256l135.577-45.443L437.02 74.98C390.692 28.654 326.693 0 256 0z" fill="#ffe278"/>
    <path d="M256 0C190.484 0 124.968 24.994 74.981 74.981l45.443 135.577L256 256z" fill="#b0d16f"/>
    <path d="M74.981 74.981C28.654 121.308 0 185.308 0 256l128 63.734L256 256z" fill="#45c5ff"/>
    <path d="M0 256c0 65.516 24.994 131.032 74.981 181.019l135.577-45.443L256 256z" fill="#0ca8ed"/>
    <path d="M74.981 437.019C121.308 483.346 185.308 512 256 512l63.734-128L256 256z" fill="#1365c2"/>
    <path d="M256 512c65.516 0 131.032-24.993 181.019-74.981l-45.443-135.577L256 256z" fill="#f71e78"/>
    <path d="M437.019 437.019C483.346 390.692 512 326.693 512 256l-128-63.734L256 256z" fill="#ff776b"/>
    <path d="M437.019 74.981L256 256h256c0-65.516-24.994-131.032-74.981-181.019z" fill="#ffb54c"/>
</svg>